# xmcd
#
# Track frame offsets: 
#        150
#        11928
#        26145
#        37530
#        53703
#        67610
#        80735
#        94078
#        108278
#        119253
#        132478
#        155615
#        165853
#        179778
#        192018
#        203440
#        216520
#        228365
#        243415
#        258793
#        272860
#        288358
#
# Disc length: 4021 seconds
#
# Revision: 2
# Processed by: cddbd v1.5.2PL0 Copyright (c) Steve Scherf et al.
# Submitted via: ExactAudioCopy v0.99pb4
#
DISCID=2c0fb316
DTITLE=Elmore James - Rollin' and Tumblin' - The Best
DYEAR=1992
DGENRE=
TTITLE0=Rollin' and Tumblin'
TTITLE1=You Know You're Wrong
TTITLE2=Look On Yonder Wall
TTITLE3=I Need You Baby
TTITLE4=Standing At The Crossroads
TTITLE5=The Sky Is Crying
TTITLE6=Baby, Please Set A Date
TTITLE7=My Bleeding Heart
TTITLE8=Sunnyland
TTITLE9=Dust My Broom
TTITLE10=Something Inside Me
TTITLE11=Go Back Home Again
TTITLE12=Anna Lee
TTITLE13=mean Mistreatin' mama
TTITLE14=One Way Out
TTITLE15=Shake Your Moneymaker
TTITLE16=Fine Little Mama
TTITLE17=Stranger Blues
TTITLE18=It Hurts Me Too
TTITLE19=Find My Kind Of Woman
TTITLE20=Everyday I Have The Blues
TTITLE21=My Baby's Gone
EXTD=
EXTT0=
EXTT1=
EXTT2=
EXTT3=
EXTT4=
EXTT5=
EXTT6=
EXTT7=
EXTT8=
EXTT9=
EXTT10=
EXTT11=
EXTT12=
EXTT13=
EXTT14=
EXTT15=
EXTT16=
EXTT17=
EXTT18=
EXTT19=
EXTT20=
EXTT21=
PLAYORDER=
